<?xml version="1.0" encoding="iso-8859-1"?>
<!-- Generator: Adobe Illustrator 19.0.0, SVG Export Plug-In . SVG Version: 6.00 Build 0)  -->
<svg version="1.1" id="Layer_1" xmlns="http://www.w3.org/2000/svg" xmlns:xlink="http://www.w3.org/1999/xlink" x="0px" y="0px"
	 viewBox="0 0 512 512" style="enable-background:new 0 0 512 512;" xml:space="preserve">
<g>
	<g>
		<rect x="77.913" y="100.174" width="33.391" height="166.956"/>
	</g>
</g>
<g>
	<g>
		<rect x="400.696" y="100.174" width="33.391" height="166.956"/>
	</g>
</g>
<g>
	<g>
		<rect x="178.087" width="155.826" height="33.391"/>
	</g>
</g>
<g>
	<g>
		<rect x="111.304" y="66.783" width="33.391" height="33.391"/>
	</g>
</g>
<g>
	<g>
		<rect x="144.696" y="33.391" width="33.391" height="33.391"/>
	</g>
</g>
<g>
	<g>
		<rect x="333.913" y="33.391" width="33.391" height="33.391"/>
	</g>
</g>
<g>
	<g>
		<rect x="367.304" y="66.783" width="33.391" height="33.391"/>
	</g>
</g>
<g>
	<g>
		<rect x="111.304" y="267.13" width="33.391" height="33.391"/>
	</g>
</g>
<g>
	<g>
		<rect x="367.304" y="267.13" width="33.391" height="33.391"/>
	</g>
</g>
<g>
	<g>
		<polygon points="333.913,300.522 333.913,333.913 300.522,333.913 300.522,367.304 333.913,367.304 367.304,367.304 
			367.304,333.913 367.304,300.522 		"/>
	</g>
</g>
<g>
	<g>
		<polygon points="400.696,400.696 400.696,478.609 111.304,478.609 111.304,400.696 77.913,400.696 77.913,478.609 77.913,512 
			111.304,512 400.696,512 434.087,512 434.087,478.609 434.087,400.696 		"/>
	</g>
</g>
<g>
	<g>
		<rect x="111.304" y="367.304" width="33.391" height="33.391"/>
	</g>
</g>
<g>
	<g>
		<rect x="367.304" y="367.304" width="33.391" height="33.391"/>
	</g>
</g>
<g>
	<g>
		<polygon points="178.087,333.913 178.087,300.522 144.696,300.522 144.696,333.913 144.696,367.304 178.087,367.304 
			211.478,367.304 211.478,333.913 		"/>
	</g>
</g>
<g>
</g>
<g>
</g>
<g>
</g>
<g>
</g>
<g>
</g>
<g>
</g>
<g>
</g>
<g>
</g>
<g>
</g>
<g>
</g>
<g>
</g>
<g>
</g>
<g>
</g>
<g>
</g>
<g>
</g>
</svg>
